#N canvas 773 29 1020 802 10;
#X obj 14 686 dac~;
#X msg 296 -19 0;
#X msg 19 -20 open /Users/Alex/Desktop/stringInput.wav \, 1;
#N canvas 1100 23 743 735 stringFeedbck 0;
#X obj 28 28 hip~ 50;
#X obj 262 373 sig~;
#X obj 262 283 int;
#X obj 264 306 pack 0 0;
#X obj 277 245 t i b i;
#X msg 89 151 fidelity 0;
#X obj 156 64 loadbang;
#X obj 228 167 helmholtz~ 2048 4;
#X msg 228 122 sens 0.4;
#X obj 89 195 helmholtz~ 1024;
#X obj 28 3 inlet~;
#X obj 30 540 outlet~;
#X obj 31 441 vcf~ 3;
#X obj 32 387 *~ 1;
#X obj 175 234 * 2;
#X obj 175 272 clip 0 1;
#X obj 83 275 send fidelity;
#X obj 350 405 send freq;
#X obj 49 125 send~ filtSig;
#X obj 261 444 send~ BPF;
#X obj 31 490 *~ 1;
#X obj 277 210 speedlim 2;
#X msg 262 330 \$1 \$2 1;
#X obj 262 350 line 0 1;
#X obj 26 64 lp6_cheb~ 500;
#X connect 0 0 24 0;
#X connect 1 0 12 1;
#X connect 1 0 19 0;
#X connect 2 0 3 0;
#X connect 3 0 22 0;
#X connect 4 0 2 1;
#X connect 4 1 2 0;
#X connect 4 2 3 1;
#X connect 5 0 9 0;
#X connect 6 0 5 0;
#X connect 6 0 8 0;
#X connect 7 1 17 0;
#X connect 7 1 21 0;
#X connect 8 0 7 0;
#X connect 9 2 14 0;
#X connect 9 2 16 0;
#X connect 10 0 0 0;
#X connect 12 0 20 0;
#X connect 13 0 12 0;
#X connect 14 0 15 0;
#X connect 15 0 13 1;
#X connect 20 0 11 0;
#X connect 21 0 4 0;
#X connect 22 0 23 0;
#X connect 23 0 1 0;
#X connect 24 0 7 0;
#X connect 24 0 9 0;
#X connect 24 0 13 0;
#X connect 24 0 18 0;
#X restore 27 154 pd stringFeedbck;
#X obj 331 125 receive freq;
#X obj 331 327 *~;
#X obj 487 193 receive fidelity;
#X obj 148 250 atan~;
#X obj 148 226 *~;
#X obj 148 307 *~;
#X obj 181 277 receive fidelity;
#X obj 164 188 >~ 0.01;
#X obj 237 359 +~;
#X obj 142 150 receive~ filtSig;
#X obj 275 364 receive~ BPF;
#X obj 204 435 +~;
#X obj 204 495 *~;
#X obj 204 463 *~ 0.3;
#X floatatom 287 501 5 0 0 0 - - -;
#X msg 444 535 width 0;
#X floatatom 367 498 5 0 0 0 - - -;
#X floatatom 505 499 5 0 0 0 - - -;
#X msg 556 538 dry 0;
#X msg 286 531 roomsize 0.08;
#X msg 367 533 damping 0.61;
#X msg 501 537 wet 0.67;
#X obj 204 522 *~ 1;
#X obj 100 375 *~ 0.2;
#X obj 204 548 freeverb~;
#X obj 35 633 +~;
#X obj 692 188 env~;
#X obj 62 604 *~;
#X obj 690 219 / 100;
#X obj 675 368 route 1 0;
#X obj 673 507 line 0 1;
#X obj 675 249 +;
#X floatatom 675 279 5 0 0 0 - - -;
#X obj 242 390 vcf~ 3;
#X obj 689 152 receive~ filtSig;
#X obj 331 210 impulse~ 30;
#X obj 62 576 +~;
#X obj 27 85 adc~;
#X obj 675 342 speedlim 120;
#X msg 673 465 1 100;
#X msg 729 466 0 100;
#X obj 675 311 > 1.6;
#X obj 82 26 readsf;
#X connect 2 0 46 0;
#X connect 3 0 29 0;
#X connect 4 0 39 0;
#X connect 5 0 12 1;
#X connect 6 0 5 1;
#X connect 6 0 16 1;
#X connect 6 0 27 1;
#X connect 6 0 35 0;
#X connect 7 0 9 0;
#X connect 8 0 7 0;
#X connect 9 0 12 0;
#X connect 10 0 9 1;
#X connect 11 0 8 1;
#X connect 12 0 37 0;
#X connect 12 0 15 0;
#X connect 13 0 8 0;
#X connect 13 0 11 0;
#X connect 13 0 27 0;
#X connect 14 0 37 1;
#X connect 15 0 17 0;
#X connect 16 0 26 0;
#X connect 17 0 16 0;
#X connect 18 0 23 0;
#X connect 19 0 28 0;
#X connect 20 0 24 0;
#X connect 21 0 25 0;
#X connect 22 0 28 0;
#X connect 23 0 28 0;
#X connect 24 0 28 0;
#X connect 25 0 28 0;
#X connect 26 0 28 0;
#X connect 27 0 40 0;
#X connect 28 0 40 1;
#X connect 29 0 0 1;
#X connect 30 0 32 0;
#X connect 31 0 29 1;
#X connect 32 0 35 1;
#X connect 33 0 43 0;
#X connect 33 1 44 0;
#X connect 34 0 31 1;
#X connect 35 0 36 0;
#X connect 36 0 45 0;
#X connect 37 0 15 1;
#X connect 38 0 30 0;
#X connect 39 0 5 0;
#X connect 40 0 31 0;
#X connect 41 0 3 0;
#X connect 42 0 33 0;
#X connect 43 0 34 0;
#X connect 44 0 34 0;
#X connect 45 0 42 0;
#X connect 46 0 3 0;
